<?xml version="1.0" encoding="utf-8"?>
<!-- Generator: Adobe Illustrator 17.0.0, SVG Export Plug-In . SVG Version: 6.00 Build 0)  -->
<!DOCTYPE svg PUBLIC "-//W3C//DTD SVG 1.1//EN" "http://www.w3.org/Graphics/SVG/1.1/DTD/svg11.dtd">
<svg version="1.1" id="图层_1" xmlns="http://www.w3.org/2000/svg" xmlns:xlink="http://www.w3.org/1999/xlink" x="0px" y="0px"
	 width="56.693px" height="56.693px" viewBox="0 0 56.693 56.693" enable-background="new 0 0 56.693 56.693" xml:space="preserve">
<g>
	<path fill-rule="evenodd" clip-rule="evenodd" fill="#2C2C2C" d="M12.616,54.465c-0.008,0.003-0.002,0.003,0.016,0.003
		c0.02,0,0.028,0,0.018-0.003c0.015-0.003,0.023-0.003-0.018-0.003C12.593,54.462,12.6,54.465,12.616,54.465L12.616,54.465z"/>
	<path fill-rule="evenodd" clip-rule="evenodd" fill="#2C2C2C" d="M28.489,25.514c-2.054,0-5.174-1.596-6.776-2.993h-2.353
		c2.333,3.446,5.377,4.963,9.128,4.963c3.739,0,7.069-1.524,9.39-4.963h-2.319C33.96,23.915,30.543,25.514,28.489,25.514
		L28.489,25.514z"/>
	<path fill-rule="evenodd" clip-rule="evenodd" fill="#2C2C2C" d="M55.066,52.828c-2.127-9.433-9.213-17.036-18.509-19.887
		c5.307-2.862,8.946-8.333,8.946-14.694c0-9.296-7.682-16.831-17.155-16.831c-9.476,0-17.158,7.535-17.158,16.831
		c0,6.361,3.639,11.83,8.947,14.695C10.84,35.792,3.75,43.397,1.627,52.828c-0.133,0.233-0.205,0.496-0.21,0.765
		c0,0.93,0.77,1.683,1.715,1.683s1.716-0.753,1.716-1.683h0.045C7.25,43.007,16.849,35.079,28.347,35.079
		c11.496,0,21.093,7.927,23.451,18.514h0.043c0.01,0.939,0.779,1.692,1.718,1.683c0.948,0,1.716-0.753,1.716-1.683
		C55.272,53.325,55.2,53.061,55.066,52.828L55.066,52.828z M14.621,18.248c0-7.436,6.143-13.465,13.726-13.465
		c7.58,0,13.724,6.029,13.724,13.465c0,7.436-6.144,13.463-13.724,13.463C20.766,31.711,14.621,25.684,14.621,18.248L14.621,18.248z
		"/>
</g>
</svg>
